<?xml version="1.0" encoding="iso-8859-1"?>
<!-- Uploaded to: SVG Repo, www.svgrepo.com, Generator: SVG Repo Mixer Tools -->
<svg fill="#000000" height="800px" width="800px" version="1.1" id="Layer_1" xmlns="http://www.w3.org/2000/svg" xmlns:xlink="http://www.w3.org/1999/xlink" 
	 viewBox="0 0 300 300" xml:space="preserve">
<g>
	<g>
		<g>
			<path d="M293.75,150h-6.238c-0.003-27.814-10.753-53.161-28.309-72.12l9.865-10.055c2.406-2.456,2.381-6.419-0.094-8.838
				c-2.456-2.4-6.413-2.388-8.838,0.088l-9.95,10.141C233.1,54.614,211.344,45.329,187.5,43.939V25c0-3.456-2.794-6.25-6.25-6.25
				S175,21.544,175,25v18.939c-23.367,1.362-44.729,10.308-61.656,24.41L76.25,30.556c-2.444-2.488-6.388-2.519-8.838-0.094
				c-2.475,2.425-2.513,6.375-0.094,8.837l36.902,37.597C86.124,95.957,75.003,121.704,75,150H6.25C2.794,150,0,152.794,0,156.25
				s2.794,6.25,6.25,6.25h69.488c2.603,22.135,12.035,42.207,26.128,58.05c-0.011,0.011-0.023,0.02-0.035,0.031l-37.5,37.5
				c-2.444,2.444-2.444,6.394,0,8.838c1.219,1.219,2.819,1.831,4.419,1.831s3.2-0.612,4.419-1.831l37.5-37.5
				c0.011-0.011,0.02-0.023,0.031-0.034c17.321,15.413,39.699,25.254,64.301,26.689V275c0,3.456,2.794,6.25,6.25,6.25
				s6.25-2.794,6.25-6.25v-18.926c25.128-1.465,47.94-11.696,65.41-27.677l7.227,7.366c1.225,1.25,2.844,1.881,4.462,1.881
				c1.581,0,3.163-0.594,4.375-1.794c2.469-2.425,2.506-6.375,0.088-8.837l-7.433-7.576c13.551-15.665,22.603-35.319,25.146-56.936
				h6.975c3.456,0,6.25-2.794,6.25-6.25S297.206,150,293.75,150z M87.5,150.013c0-26.332,10.912-50.157,28.445-67.204
				c0.61-0.289,1.191-0.658,1.699-1.152c0.455-0.446,0.827-0.945,1.116-1.476c16.597-14.871,38.504-23.93,62.49-23.93
				c51.694,0,93.763,42.056,93.763,93.763c0,51.627-41.961,93.64-93.564,93.747c-0.066-0.002-0.131-0.01-0.198-0.01
				s-0.132,0.008-0.198,0.01C129.449,243.652,87.5,201.64,87.5,150.013z"/>
			<path d="M181.25,181.263c17.237,0,31.256-14.019,31.256-31.25c0-17.237-14.019-31.263-31.256-31.263
				c-17.231,0-31.25,14.025-31.25,31.263C150,167.244,164.019,181.263,181.25,181.263z M181.25,131.25
				c10.338,0,18.756,8.425,18.756,18.763c0,10.337-8.419,18.75-18.756,18.75s-18.75-8.412-18.75-18.75S170.912,131.25,181.25,131.25
				z"/>
		</g>
	</g>
</g>
</svg>